<?xml version="1.0" encoding="utf-8"?>
<!-- Generator: Adobe Illustrator 24.1.1, SVG Export Plug-In . SVG Version: 6.00 Build 0)  -->
<svg version="1.1" id="Layer_1" xmlns="http://www.w3.org/2000/svg" xmlns:xlink="http://www.w3.org/1999/xlink" x="0px" y="0px"
	 viewBox="0 0 91.22 115.38" style="enable-background:new 0 0 91.22 115.38;" xml:space="preserve">
<style type="text/css">
	.st0{fill:#231F20;}
	.st1{fill:#FFFFFF;}
</style>
<g>
	<path class="st0" d="M80.91,54.86V38.82c0-19.47-15.84-35.3-35.31-35.3c-19.47,0-35.31,15.84-35.31,35.3v16.04
		c-4.22,0.42-7.52,3.99-7.52,8.32v40.31c0,4.62,3.75,8.37,8.37,8.37h68.92c4.62,0,8.37-3.75,8.37-8.37V63.19
		C88.44,58.85,85.14,55.29,80.91,54.86z M45.61,19.8c10.49,0,19.02,8.53,19.02,19.02v16H26.58v-16
		C26.58,28.33,35.12,19.8,45.61,19.8z"/>
	<g>
		<path class="st1" d="M52.82,75.87c0,3.98-3.23,7.21-7.21,7.21s-7.21-3.23-7.21-7.21c0-3.98,3.23-7.21,7.21-7.21
			S52.82,71.89,52.82,75.87z"/>
		<polygon class="st1" points="45.61,74.07 51.42,101.57 40.6,101.57 		"/>
	</g>
</g>
</svg>
