<?xml version="1.0" encoding="utf-8"?>
<!-- Generator: Adobe Illustrator 24.1.1, SVG Export Plug-In . SVG Version: 6.00 Build 0)  -->
<svg version="1.1" id="Layer_1" xmlns="http://www.w3.org/2000/svg" xmlns:xlink="http://www.w3.org/1999/xlink" x="0px" y="0px"
	 viewBox="0 0 138.56 115.16" style="enable-background:new 0 0 138.56 115.16;" xml:space="preserve">
<style type="text/css">
	.st0{fill:#231F20;}
	.st1{fill:#FFFFFF;}
</style>
<g>
	<path class="st0" d="M99.54,2.31c-19.98,0-36.23,16.25-36.23,36.23V54.3H11.37c-4.74,0-8.59,3.84-8.59,8.59v41.37
		c0,4.74,3.84,8.59,8.59,8.59h70.74c4.74,0,8.59-3.84,8.59-8.59V62.88c0-4.74-3.84-8.59-8.59-8.59h-2.09V38.55
		c0-10.77,8.76-19.52,19.52-19.52c10.77,0,19.53,8.76,19.53,19.52v24.48h16.71V38.55C135.77,18.57,119.52,2.31,99.54,2.31z"/>
	<g>
		<path class="st1" d="M54.24,76.75c0,4.09-3.32,7.41-7.41,7.41s-7.41-3.32-7.41-7.41c0-4.09,3.32-7.41,7.41-7.41
			S54.24,72.66,54.24,76.75z"/>
		<polygon class="st1" points="46.83,74.9 52.8,103.14 41.69,103.14 		"/>
	</g>
</g>
</svg>
